<?xml version="1.0" encoding="UTF-8" standalone="no"?>
<!DOCTYPE svg PUBLIC "-//W3C//DTD SVG 1.1//EN"
 "http://www.w3.org/Graphics/SVG/1.1/DTD/svg11.dtd">
<!-- Generated by graphviz version 2.40.1 (20161225.0304)
 -->
<!-- Title: G Pages: 1 -->
<svg width="613pt" height="876pt"
 viewBox="0.00 0.00 613.09 876.00" xmlns="http://www.w3.org/2000/svg" xmlns:xlink="http://www.w3.org/1999/xlink">
<g id="graph0" class="graph" transform="scale(1 1) rotate(0) translate(4 872)">
<title>G</title>
<polygon fill="#ffffff" stroke="transparent" points="-4,4 -4,-872 609.0865,-872 609.0865,4 -4,4"/>
<g id="clust1" class="cluster">
<title>cluster_Global</title>
<path fill="none" stroke="#c0c0c0" d="M20,-44C20,-44 585.0865,-44 585.0865,-44 591.0865,-44 597.0865,-50 597.0865,-56 597.0865,-56 597.0865,-848 597.0865,-848 597.0865,-854 591.0865,-860 585.0865,-860 585.0865,-860 20,-860 20,-860 14,-860 8,-854 8,-848 8,-848 8,-56 8,-56 8,-50 14,-44 20,-44"/>
<text text-anchor="middle" x="302.5433" y="-847.2" font-family="Times,serif" font-size="11.00" fill="#c0c0c0">Global</text>
</g>
<g id="clust2" class="cluster">
<title>cluster_\App</title>
<path fill="none" stroke="#c0c0c0" d="M252.0865,-52C252.0865,-52 577.0865,-52 577.0865,-52 583.0865,-52 589.0865,-58 589.0865,-64 589.0865,-64 589.0865,-578 589.0865,-578 589.0865,-584 583.0865,-590 577.0865,-590 577.0865,-590 252.0865,-590 252.0865,-590 246.0865,-590 240.0865,-584 240.0865,-578 240.0865,-578 240.0865,-64 240.0865,-64 240.0865,-58 246.0865,-52 252.0865,-52"/>
<text text-anchor="middle" x="414.5865" y="-577.2" font-family="Times,serif" font-size="11.00" fill="#c0c0c0">App</text>
</g>
<g id="clust3" class="cluster">
<title>cluster_\App\Models</title>
<path fill="none" stroke="#c0c0c0" d="M260.0865,-60C260.0865,-60 569.0865,-60 569.0865,-60 575.0865,-60 581.0865,-66 581.0865,-72 581.0865,-72 581.0865,-416 581.0865,-416 581.0865,-422 575.0865,-428 569.0865,-428 569.0865,-428 260.0865,-428 260.0865,-428 254.0865,-428 248.0865,-422 248.0865,-416 248.0865,-416 248.0865,-72 248.0865,-72 248.0865,-66 254.0865,-60 260.0865,-60"/>
<text text-anchor="middle" x="414.5865" y="-415.2" font-family="Times,serif" font-size="11.00" fill="#c0c0c0">Models</text>
</g>
<g id="clust4" class="cluster">
<title>cluster_\App\Models\Map</title>
<path fill="none" stroke="#c0c0c0" d="M444.0865,-68C444.0865,-68 561.0865,-68 561.0865,-68 567.0865,-68 573.0865,-74 573.0865,-80 573.0865,-80 573.0865,-182 573.0865,-182 573.0865,-188 567.0865,-194 561.0865,-194 561.0865,-194 444.0865,-194 444.0865,-194 438.0865,-194 432.0865,-188 432.0865,-182 432.0865,-182 432.0865,-80 432.0865,-80 432.0865,-74 438.0865,-68 444.0865,-68"/>
<text text-anchor="middle" x="502.5865" y="-181.2" font-family="Times,serif" font-size="11.00" fill="#c0c0c0">Map</text>
</g>
<g id="clust5" class="cluster">
<title>cluster_\App\Models\Base</title>
<path fill="none" stroke="#c0c0c0" d="M268.0865,-166C268.0865,-166 364.0865,-166 364.0865,-166 370.0865,-166 376.0865,-172 376.0865,-178 376.0865,-178 376.0865,-388 376.0865,-388 376.0865,-394 370.0865,-400 364.0865,-400 364.0865,-400 268.0865,-400 268.0865,-400 262.0865,-400 256.0865,-394 256.0865,-388 256.0865,-388 256.0865,-178 256.0865,-178 256.0865,-172 262.0865,-166 268.0865,-166"/>
<text text-anchor="middle" x="316.0865" y="-387.2" font-family="Times,serif" font-size="11.00" fill="#c0c0c0">Base</text>
</g>
<g id="clust6" class="cluster">
<title>cluster_\App\Controllers</title>
<path fill="none" stroke="#c0c0c0" d="M464.5865,-436C464.5865,-436 540.5865,-436 540.5865,-436 546.5865,-436 552.5865,-442 552.5865,-448 552.5865,-448 552.5865,-550 552.5865,-550 552.5865,-556 546.5865,-562 540.5865,-562 540.5865,-562 464.5865,-562 464.5865,-562 458.5865,-562 452.5865,-556 452.5865,-550 452.5865,-550 452.5865,-448 452.5865,-448 452.5865,-442 458.5865,-436 464.5865,-436"/>
<text text-anchor="middle" x="502.5865" y="-549.2" font-family="Times,serif" font-size="11.00" fill="#c0c0c0">Controllers</text>
</g>
<g id="clust7" class="cluster">
<title>cluster_\Core</title>
<path fill="none" stroke="#c0c0c0" d="M278.0865,-598C278.0865,-598 354.0865,-598 354.0865,-598 360.0865,-598 366.0865,-604 366.0865,-610 366.0865,-610 366.0865,-820 366.0865,-820 366.0865,-826 360.0865,-832 354.0865,-832 354.0865,-832 278.0865,-832 278.0865,-832 272.0865,-832 266.0865,-826 266.0865,-820 266.0865,-820 266.0865,-610 266.0865,-610 266.0865,-604 272.0865,-598 278.0865,-598"/>
<text text-anchor="middle" x="316.0865" y="-819.2" font-family="Times,serif" font-size="11.00" fill="#c0c0c0">Core</text>
</g>
<g id="clust8" class="cluster">
<title>cluster_Global\Propel</title>
<path fill="none" stroke="#c0c0c0" d="M28,-285C28,-285 174.1892,-285 174.1892,-285 180.1892,-285 186.1892,-291 186.1892,-297 186.1892,-297 186.1892,-417 186.1892,-417 186.1892,-423 180.1892,-429 174.1892,-429 174.1892,-429 28,-429 28,-429 22,-429 16,-423 16,-417 16,-417 16,-297 16,-297 16,-291 22,-285 28,-285"/>
<text text-anchor="middle" x="101.0946" y="-416.2" font-family="Times,serif" font-size="11.00" fill="#c0c0c0">Propel</text>
</g>
<g id="clust9" class="cluster">
<title>cluster_Global\Propel\Runtime</title>
<path fill="none" stroke="#c0c0c0" d="M36,-293C36,-293 166.1892,-293 166.1892,-293 172.1892,-293 178.1892,-299 178.1892,-305 178.1892,-305 178.1892,-389 178.1892,-389 178.1892,-395 172.1892,-401 166.1892,-401 166.1892,-401 36,-401 36,-401 30,-401 24,-395 24,-389 24,-389 24,-305 24,-305 24,-299 30,-293 36,-293"/>
<text text-anchor="middle" x="101.0946" y="-388.2" font-family="Times,serif" font-size="11.00" fill="#c0c0c0">Runtime</text>
</g>
<g id="clust10" class="cluster">
<title>cluster_Global\Propel\Runtime\ActiveQuery</title>
<path fill="none" stroke="#c0c0c0" d="M44,-301C44,-301 158.1892,-301 158.1892,-301 164.1892,-301 170.1892,-307 170.1892,-313 170.1892,-313 170.1892,-361 170.1892,-361 170.1892,-367 164.1892,-373 158.1892,-373 158.1892,-373 44,-373 44,-373 38,-373 32,-367 32,-361 32,-361 32,-313 32,-313 32,-307 38,-301 44,-301"/>
<text text-anchor="middle" x="101.0946" y="-360.2" font-family="Times,serif" font-size="11.00" fill="#c0c0c0">ActiveQuery</text>
</g>
<!-- \\App\\Models\\Map\\CategoryTableMap -->
<g id="node1" class="node">
<title>\\App\\Models\\Map\\CategoryTableMap</title>
<polygon fill="none" stroke="#000000" points="565.0865,-166 440.0865,-166 440.0865,-130 565.0865,-130 565.0865,-166"/>
<text text-anchor="middle" x="502.5865" y="-145.2" font-family="Courier,monospace" font-size="11.00" fill="#000000">CategoryTableMap</text>
</g>
<!-- TableMap -->
<g id="node18" class="node">
<title>TableMap</title>
<ellipse fill="none" stroke="#000000" cx="316.0865" cy="-18" rx="47.3916" ry="18"/>
<text text-anchor="middle" x="316.0865" y="-14.3" font-family="Times,serif" font-size="14.00" fill="#000000">TableMap</text>
</g>
<!-- \\App\\Models\\Map\\CategoryTableMap&#45;&gt;TableMap -->
<g id="edge2" class="edge">
<title>\\App\\Models\\Map\\CategoryTableMap&#45;&gt;TableMap</title>
<path fill="none" stroke="#000000" d="M449.241,-129.9607C443.3021,-127.2571 437.4632,-124.2664 432.0865,-121 395.897,-99.0143 360.405,-65.1827 338.4045,-42.349"/>
<polygon fill="none" stroke="#000000" points="340.9044,-39.8988 331.4791,-35.06 335.8297,-44.7204 340.9044,-39.8988"/>
</g>
<!-- \\App\\Models\\Map\\TaskTableMap -->
<g id="node2" class="node">
<title>\\App\\Models\\Map\\TaskTableMap</title>
<polygon fill="none" stroke="#000000" points="551.5865,-112 453.5865,-112 453.5865,-76 551.5865,-76 551.5865,-112"/>
<text text-anchor="middle" x="502.5865" y="-91.2" font-family="Courier,monospace" font-size="11.00" fill="#000000">TaskTableMap</text>
</g>
<!-- \\App\\Models\\Map\\TaskTableMap&#45;&gt;TableMap -->
<g id="edge11" class="edge">
<title>\\App\\Models\\Map\\TaskTableMap&#45;&gt;TableMap</title>
<path fill="none" stroke="#000000" d="M458.3886,-75.9891C427.966,-63.5916 387.8057,-47.2261 357.9083,-35.0427"/>
<polygon fill="none" stroke="#000000" points="359.1688,-31.7769 348.5873,-31.2443 356.5271,-38.2593 359.1688,-31.7769"/>
</g>
<!-- \\App\\Models\\Base\\Category -->
<g id="node3" class="node">
<title>\\App\\Models\\Base\\Category</title>
<polygon fill="none" stroke="#000000" points="358.0865,-210 274.0865,-210 274.0865,-174 358.0865,-174 358.0865,-210"/>
<text text-anchor="start" x="282.0865" y="-195.2" font-family="Courier,monospace" font-size="11.00" fill="#000000">«abstract»</text>
<text text-anchor="start" x="288.5865" y="-183.2" font-family="Courier,monospace" font-size="11.00" fill="#000000">Category</text>
</g>
<!-- ActiveRecordInterface -->
<g id="node19" class="node">
<title>ActiveRecordInterface</title>
<ellipse fill="none" stroke="#000000" cx="101.0946" cy="-18" rx="90.9839" ry="18"/>
<text text-anchor="middle" x="101.0946" y="-14.3" font-family="Times,serif" font-size="14.00" fill="#000000">ActiveRecordInterface</text>
</g>
<!-- \\App\\Models\\Base\\Category&#45;&gt;ActiveRecordInterface -->
<g id="edge3" class="edge">
<title>\\App\\Models\\Base\\Category&#45;&gt;ActiveRecordInterface</title>
<path fill="none" stroke="#000000" stroke-dasharray="1,5" d="M293.4849,-173.7078C254.3902,-142.0672 174.1648,-77.1381 130.6823,-41.9463"/>
<polygon fill="none" stroke="#000000" points="132.7289,-39.1 122.7538,-35.5295 128.3251,-44.5412 132.7289,-39.1"/>
</g>
<!-- \\App\\Models\\Base\\Task -->
<g id="node4" class="node">
<title>\\App\\Models\\Base\\Task</title>
<polygon fill="none" stroke="#000000" points="358.0865,-264 274.0865,-264 274.0865,-228 358.0865,-228 358.0865,-264"/>
<text text-anchor="start" x="282.0865" y="-249.2" font-family="Courier,monospace" font-size="11.00" fill="#000000">«abstract»</text>
<text text-anchor="start" x="302.0865" y="-237.2" font-family="Courier,monospace" font-size="11.00" fill="#000000">Task</text>
</g>
<!-- \\App\\Models\\Base\\Task&#45;&gt;ActiveRecordInterface -->
<g id="edge6" class="edge">
<title>\\App\\Models\\Base\\Task&#45;&gt;ActiveRecordInterface</title>
<path fill="none" stroke="#000000" stroke-dasharray="1,5" d="M273.8878,-236.1946C262.1806,-232.1494 249.9803,-226.5773 240.0865,-219 178.0576,-171.4943 133.3458,-88.3235 113.1351,-45.3823"/>
<polygon fill="none" stroke="#000000" points="116.2278,-43.7309 108.8616,-36.1158 109.8712,-46.6624 116.2278,-43.7309"/>
</g>
<!-- \\App\\Models\\Base\\CategoryQuery -->
<g id="node5" class="node">
<title>\\App\\Models\\Base\\CategoryQuery</title>
<polygon fill="none" stroke="#000000" points="368.0865,-372 264.0865,-372 264.0865,-336 368.0865,-336 368.0865,-372"/>
<text text-anchor="start" x="282.0865" y="-357.2" font-family="Courier,monospace" font-size="11.00" fill="#000000">«abstract»</text>
<text text-anchor="start" x="272.0865" y="-345.2" font-family="Courier,monospace" font-size="11.00" fill="#000000">CategoryQuery</text>
</g>
<!-- ModelCriteria -->
<g id="node17" class="node">
<title>ModelCriteria</title>
<ellipse fill="none" stroke="#000000" cx="101.0946" cy="-327" rx="61.1893" ry="18"/>
<text text-anchor="middle" x="101.0946" y="-323.3" font-family="Times,serif" font-size="14.00" fill="#c0c0c0">ModelCriteria</text>
</g>
<!-- \\App\\Models\\Base\\CategoryQuery&#45;&gt;ModelCriteria -->
<g id="edge9" class="edge">
<title>\\App\\Models\\Base\\CategoryQuery&#45;&gt;ModelCriteria</title>
<path fill="none" stroke="#000000" d="M264.043,-347.4641C235.1254,-343.8324 198.8351,-339.2749 167.8467,-335.3831"/>
<polygon fill="none" stroke="#000000" points="167.9174,-331.8646 157.5592,-334.0912 167.0451,-338.8101 167.9174,-331.8646"/>
</g>
<!-- \\App\\Models\\Base\\TaskQuery -->
<g id="node6" class="node">
<title>\\App\\Models\\Base\\TaskQuery</title>
<polygon fill="none" stroke="#000000" points="358.0865,-318 274.0865,-318 274.0865,-282 358.0865,-282 358.0865,-318"/>
<text text-anchor="start" x="282.0865" y="-303.2" font-family="Courier,monospace" font-size="11.00" fill="#000000">«abstract»</text>
<text text-anchor="start" x="285.5865" y="-291.2" font-family="Courier,monospace" font-size="11.00" fill="#000000">TaskQuery</text>
</g>
<!-- \\App\\Models\\Base\\TaskQuery&#45;&gt;ModelCriteria -->
<g id="edge10" class="edge">
<title>\\App\\Models\\Base\\TaskQuery&#45;&gt;ModelCriteria</title>
<path fill="none" stroke="#000000" d="M273.8675,-305.3021C243.5937,-309.1041 202.2029,-314.3022 167.5236,-318.6574"/>
<polygon fill="none" stroke="#000000" points="166.953,-315.2015 157.467,-319.9204 167.8253,-322.147 166.953,-315.2015"/>
</g>
<!-- \\App\\Models\\Category -->
<g id="node7" class="node">
<title>\\App\\Models\\Category</title>
<polygon fill="none" stroke="#000000" points="538.0865,-238 467.0865,-238 467.0865,-202 538.0865,-202 538.0865,-238"/>
<text text-anchor="middle" x="502.5865" y="-217.2" font-family="Courier,monospace" font-size="11.00" fill="#000000">Category</text>
</g>
<!-- \\App\\Models\\Category&#45;&gt;\\App\\Models\\Base\\Category -->
<g id="edge1" class="edge">
<title>\\App\\Models\\Category&#45;&gt;\\App\\Models\\Base\\Category</title>
<path fill="none" stroke="#000000" d="M467.0683,-214.6675C439.1263,-210.4725 399.7826,-204.5656 368.2631,-199.8335"/>
<polygon fill="none" stroke="#000000" points="368.7377,-196.3656 358.3288,-198.342 367.6983,-203.288 368.7377,-196.3656"/>
</g>
<!-- \\App\\Models\\Task -->
<g id="node8" class="node">
<title>\\App\\Models\\Task</title>
<polygon fill="none" stroke="#000000" points="529.5865,-292 475.5865,-292 475.5865,-256 529.5865,-256 529.5865,-292"/>
<text text-anchor="middle" x="502.5865" y="-271.2" font-family="Courier,monospace" font-size="11.00" fill="#000000">Task</text>
</g>
<!-- \\App\\Models\\Task&#45;&gt;\\App\\Models\\Base\\Task -->
<g id="edge4" class="edge">
<title>\\App\\Models\\Task&#45;&gt;\\App\\Models\\Base\\Task</title>
<path fill="none" stroke="#000000" d="M475.4678,-269.9286C447.5152,-265.7319 403.2287,-259.083 368.4253,-253.8578"/>
<polygon fill="none" stroke="#000000" points="368.8297,-250.3794 358.4208,-252.3558 367.7903,-257.3018 368.8297,-250.3794"/>
</g>
<!-- \\App\\Models\\TaskQuery -->
<g id="node9" class="node">
<title>\\App\\Models\\TaskQuery</title>
<polygon fill="none" stroke="#000000" points="541.0865,-346 464.0865,-346 464.0865,-310 541.0865,-310 541.0865,-346"/>
<text text-anchor="middle" x="502.5865" y="-325.2" font-family="Courier,monospace" font-size="11.00" fill="#000000">TaskQuery</text>
</g>
<!-- \\App\\Models\\TaskQuery&#45;&gt;\\App\\Models\\Base\\TaskQuery -->
<g id="edge7" class="edge">
<title>\\App\\Models\\TaskQuery&#45;&gt;\\App\\Models\\Base\\TaskQuery</title>
<path fill="none" stroke="#000000" d="M463.9436,-322.1984C436.2408,-318.0393 398.6102,-312.3896 368.2457,-307.8309"/>
<polygon fill="none" stroke="#000000" points="368.6603,-304.354 358.2515,-306.3304 367.621,-311.2764 368.6603,-304.354"/>
</g>
<!-- \\App\\Models\\CategoryQuery -->
<g id="node10" class="node">
<title>\\App\\Models\\CategoryQuery</title>
<polygon fill="none" stroke="#000000" points="554.5865,-400 450.5865,-400 450.5865,-364 554.5865,-364 554.5865,-400"/>
<text text-anchor="middle" x="502.5865" y="-379.2" font-family="Courier,monospace" font-size="11.00" fill="#000000">CategoryQuery</text>
</g>
<!-- \\App\\Models\\CategoryQuery&#45;&gt;\\App\\Models\\Base\\CategoryQuery -->
<g id="edge8" class="edge">
<title>\\App\\Models\\CategoryQuery&#45;&gt;\\App\\Models\\Base\\CategoryQuery</title>
<path fill="none" stroke="#000000" d="M450.1395,-374.1259C427.8032,-370.7725 401.5762,-366.8349 378.2717,-363.3361"/>
<polygon fill="none" stroke="#000000" points="378.5486,-359.8385 368.1398,-361.815 377.5093,-366.761 378.5486,-359.8385"/>
</g>
<!-- \\App\\Controllers\\Tasks -->
<g id="node11" class="node">
<title>\\App\\Controllers\\Tasks</title>
<polygon fill="none" stroke="#000000" points="529.5865,-534 475.5865,-534 475.5865,-498 529.5865,-498 529.5865,-534"/>
<text text-anchor="middle" x="502.5865" y="-513.2" font-family="Courier,monospace" font-size="11.00" fill="#000000">Tasks</text>
</g>
<!-- \\Core\\Controller -->
<g id="node16" class="node">
<title>\\Core\\Controller</title>
<polygon fill="none" stroke="#000000" points="358.0865,-642 274.0865,-642 274.0865,-606 358.0865,-606 358.0865,-642"/>
<text text-anchor="start" x="282.0865" y="-627.2" font-family="Courier,monospace" font-size="11.00" fill="#000000">«abstract»</text>
<text text-anchor="start" x="282.0865" y="-615.2" font-family="Courier,monospace" font-size="11.00" fill="#000000">Controller</text>
</g>
<!-- \\App\\Controllers\\Tasks&#45;&gt;\\Core\\Controller -->
<g id="edge5" class="edge">
<title>\\App\\Controllers\\Tasks&#45;&gt;\\Core\\Controller</title>
<path fill="none" stroke="#000000" d="M475.4678,-531.7041C444.0819,-549.8794 392.1032,-579.9796 356.0781,-600.8413"/>
<polygon fill="none" stroke="#000000" points="354.185,-597.8931 347.2852,-605.9332 357.6929,-603.9507 354.185,-597.8931"/>
</g>
<!-- \\App\\Controllers\\Categories -->
<g id="node12" class="node">
<title>\\App\\Controllers\\Categories</title>
<polygon fill="none" stroke="#000000" points="544.5865,-480 460.5865,-480 460.5865,-444 544.5865,-444 544.5865,-480"/>
<text text-anchor="middle" x="502.5865" y="-459.2" font-family="Courier,monospace" font-size="11.00" fill="#000000">Categories</text>
</g>
<!-- \\App\\Controllers\\Categories&#45;&gt;\\Core\\Controller -->
<g id="edge12" class="edge">
<title>\\App\\Controllers\\Categories&#45;&gt;\\Core\\Controller</title>
<path fill="none" stroke="#000000" d="M460.2266,-474.326C450.5083,-478.1873 440.5533,-483.0401 432.0865,-489 389.9508,-518.66 353.4904,-566.9586 333.1891,-597.0305"/>
<polygon fill="none" stroke="#000000" points="330.0258,-595.468 327.4191,-605.7372 335.8608,-599.335 330.0258,-595.468"/>
</g>
<!-- \\Core\\Request -->
<g id="node13" class="node">
<title>\\Core\\Request</title>
<polygon fill="none" stroke="#000000" points="348.0865,-804 284.0865,-804 284.0865,-768 348.0865,-768 348.0865,-804"/>
<text text-anchor="middle" x="316.0865" y="-783.2" font-family="Courier,monospace" font-size="11.00" fill="#000000">Request</text>
</g>
<!-- \\Core\\View -->
<g id="node14" class="node">
<title>\\Core\\View</title>
<polygon fill="none" stroke="#000000" points="343.0865,-750 289.0865,-750 289.0865,-714 343.0865,-714 343.0865,-750"/>
<text text-anchor="middle" x="316.0865" y="-729.2" font-family="Courier,monospace" font-size="11.00" fill="#000000">View</text>
</g>
<!-- \\Core\\App -->
<g id="node15" class="node">
<title>\\Core\\App</title>
<polygon fill="none" stroke="#000000" points="343.0865,-696 289.0865,-696 289.0865,-660 343.0865,-660 343.0865,-696"/>
<text text-anchor="middle" x="316.0865" y="-675.2" font-family="Courier,monospace" font-size="11.00" fill="#000000">App</text>
</g>
</g>
</svg>
