<?xml version="1.0" encoding="UTF-8" standalone="no"?>
<!DOCTYPE svg PUBLIC "-//W3C//DTD SVG 1.1//EN"
 "http://www.w3.org/Graphics/SVG/1.1/DTD/svg11.dtd">
<!-- Generated by graphviz version 2.40.1 (20161225.0304)
 -->
<!-- Title: G Pages: 1 -->
<svg width="654pt" height="1226pt"
 viewBox="0.00 0.00 653.67 1226.00" xmlns="http://www.w3.org/2000/svg" xmlns:xlink="http://www.w3.org/1999/xlink">
<g id="graph0" class="graph" transform="scale(1 1) rotate(0) translate(4 1222)">
<title>G</title>
<polygon fill="#ffffff" stroke="transparent" points="-4,4 -4,-1222 649.6701,-1222 649.6701,4 -4,4"/>
<g id="clust1" class="cluster">
<title>cluster_Global</title>
<path fill="none" stroke="#c0c0c0" d="M233.9839,-8C233.9839,-8 625.6701,-8 625.6701,-8 631.6701,-8 637.6701,-14 637.6701,-20 637.6701,-20 637.6701,-1198 637.6701,-1198 637.6701,-1204 631.6701,-1210 625.6701,-1210 625.6701,-1210 233.9839,-1210 233.9839,-1210 227.9839,-1210 221.9839,-1204 221.9839,-1198 221.9839,-1198 221.9839,-20 221.9839,-20 221.9839,-14 227.9839,-8 233.9839,-8"/>
<text text-anchor="middle" x="429.827" y="-1197.2" font-family="Times,serif" font-size="11.00" fill="#c0c0c0">Global</text>
</g>
<g id="clust2" class="cluster">
<title>cluster_\App</title>
<path fill="none" stroke="#c0c0c0" d="M267.327,-16C267.327,-16 617.6701,-16 617.6701,-16 623.6701,-16 629.6701,-22 629.6701,-28 629.6701,-28 629.6701,-624 629.6701,-624 629.6701,-630 623.6701,-636 617.6701,-636 617.6701,-636 267.327,-636 267.327,-636 261.327,-636 255.327,-630 255.327,-624 255.327,-624 255.327,-28 255.327,-28 255.327,-22 261.327,-16 267.327,-16"/>
<text text-anchor="middle" x="442.4986" y="-623.2" font-family="Times,serif" font-size="11.00" fill="#c0c0c0">App</text>
</g>
<g id="clust3" class="cluster">
<title>cluster_\App\Models</title>
<path fill="none" stroke="#c0c0c0" d="M275.327,-24C275.327,-24 609.6701,-24 609.6701,-24 615.6701,-24 621.6701,-30 621.6701,-36 621.6701,-36 621.6701,-382 621.6701,-382 621.6701,-388 615.6701,-394 609.6701,-394 609.6701,-394 275.327,-394 275.327,-394 269.327,-394 263.327,-388 263.327,-382 263.327,-382 263.327,-36 263.327,-36 263.327,-30 269.327,-24 275.327,-24"/>
<text text-anchor="middle" x="442.4986" y="-381.2" font-family="Times,serif" font-size="11.00" fill="#c0c0c0">Models</text>
</g>
<g id="clust4" class="cluster">
<title>cluster_\App\Models\Base</title>
<path fill="none" stroke="#c0c0c0" d="M283.327,-32C283.327,-32 379.327,-32 379.327,-32 385.327,-32 391.327,-38 391.327,-44 391.327,-44 391.327,-254 391.327,-254 391.327,-260 385.327,-266 379.327,-266 379.327,-266 283.327,-266 283.327,-266 277.327,-266 271.327,-260 271.327,-254 271.327,-254 271.327,-44 271.327,-44 271.327,-38 277.327,-32 283.327,-32"/>
<text text-anchor="middle" x="331.327" y="-253.2" font-family="Times,serif" font-size="11.00" fill="#c0c0c0">Base</text>
</g>
<g id="clust5" class="cluster">
<title>cluster_\App\Models\Map</title>
<path fill="none" stroke="#c0c0c0" d="M484.6701,-240C484.6701,-240 601.6701,-240 601.6701,-240 607.6701,-240 613.6701,-246 613.6701,-252 613.6701,-252 613.6701,-354 613.6701,-354 613.6701,-360 607.6701,-366 601.6701,-366 601.6701,-366 484.6701,-366 484.6701,-366 478.6701,-366 472.6701,-360 472.6701,-354 472.6701,-354 472.6701,-252 472.6701,-252 472.6701,-246 478.6701,-240 484.6701,-240"/>
<text text-anchor="middle" x="543.1701" y="-353.2" font-family="Times,serif" font-size="11.00" fill="#c0c0c0">Map</text>
</g>
<g id="clust6" class="cluster">
<title>cluster_\App\Controllers</title>
<path fill="none" stroke="#c0c0c0" d="M505.1701,-402C505.1701,-402 581.1701,-402 581.1701,-402 587.1701,-402 593.1701,-408 593.1701,-414 593.1701,-414 593.1701,-516 593.1701,-516 593.1701,-522 587.1701,-528 581.1701,-528 581.1701,-528 505.1701,-528 505.1701,-528 499.1701,-528 493.1701,-522 493.1701,-516 493.1701,-516 493.1701,-414 493.1701,-414 493.1701,-408 499.1701,-402 505.1701,-402"/>
<text text-anchor="middle" x="543.1701" y="-515.2" font-family="Times,serif" font-size="11.00" fill="#c0c0c0">Controllers</text>
</g>
<g id="clust7" class="cluster">
<title>cluster_\App\Extensions</title>
<path fill="none" stroke="#c0c0c0" d="M520.1701,-536C520.1701,-536 566.1701,-536 566.1701,-536 572.1701,-536 578.1701,-542 578.1701,-548 578.1701,-548 578.1701,-596 578.1701,-596 578.1701,-602 572.1701,-608 566.1701,-608 566.1701,-608 520.1701,-608 520.1701,-608 514.1701,-608 508.1701,-602 508.1701,-596 508.1701,-596 508.1701,-548 508.1701,-548 508.1701,-542 514.1701,-536 520.1701,-536"/>
<text text-anchor="middle" x="543.1701" y="-595.2" font-family="Times,serif" font-size="11.00" fill="#c0c0c0">Extensions</text>
</g>
<g id="clust8" class="cluster">
<title>cluster_\Core</title>
<path fill="none" stroke="#c0c0c0" d="M293.327,-796C293.327,-796 369.327,-796 369.327,-796 375.327,-796 381.327,-802 381.327,-808 381.327,-808 381.327,-1018 381.327,-1018 381.327,-1024 375.327,-1030 369.327,-1030 369.327,-1030 293.327,-1030 293.327,-1030 287.327,-1030 281.327,-1024 281.327,-1018 281.327,-1018 281.327,-808 281.327,-808 281.327,-802 287.327,-796 293.327,-796"/>
<text text-anchor="middle" x="331.327" y="-1017.2" font-family="Times,serif" font-size="11.00" fill="#c0c0c0">Core</text>
</g>
<g id="clust9" class="cluster">
<title>cluster_Global\Propel</title>
<path fill="none" stroke="#c0c0c0" d="M271.8812,-644C271.8812,-644 390.7728,-644 390.7728,-644 396.7728,-644 402.7728,-650 402.7728,-656 402.7728,-656 402.7728,-776 402.7728,-776 402.7728,-782 396.7728,-788 390.7728,-788 390.7728,-788 271.8812,-788 271.8812,-788 265.8812,-788 259.8812,-782 259.8812,-776 259.8812,-776 259.8812,-656 259.8812,-656 259.8812,-650 265.8812,-644 271.8812,-644"/>
<text text-anchor="middle" x="331.327" y="-775.2" font-family="Times,serif" font-size="11.00" fill="#c0c0c0">Propel</text>
</g>
<g id="clust10" class="cluster">
<title>cluster_Global\Propel\Runtime</title>
<path fill="none" stroke="#c0c0c0" d="M279.8812,-652C279.8812,-652 382.7728,-652 382.7728,-652 388.7728,-652 394.7728,-658 394.7728,-664 394.7728,-664 394.7728,-748 394.7728,-748 394.7728,-754 388.7728,-760 382.7728,-760 382.7728,-760 279.8812,-760 279.8812,-760 273.8812,-760 267.8812,-754 267.8812,-748 267.8812,-748 267.8812,-664 267.8812,-664 267.8812,-658 273.8812,-652 279.8812,-652"/>
<text text-anchor="middle" x="331.327" y="-747.2" font-family="Times,serif" font-size="11.00" fill="#c0c0c0">Runtime</text>
</g>
<g id="clust11" class="cluster">
<title>cluster_Global\Propel\Runtime\Map</title>
<path fill="none" stroke="#c0c0c0" d="M287.8812,-660C287.8812,-660 374.7728,-660 374.7728,-660 380.7728,-660 386.7728,-666 386.7728,-672 386.7728,-672 386.7728,-720 386.7728,-720 386.7728,-726 380.7728,-732 374.7728,-732 374.7728,-732 287.8812,-732 287.8812,-732 281.8812,-732 275.8812,-726 275.8812,-720 275.8812,-720 275.8812,-672 275.8812,-672 275.8812,-666 281.8812,-660 287.8812,-660"/>
<text text-anchor="middle" x="331.327" y="-719.2" font-family="Times,serif" font-size="11.00" fill="#c0c0c0">Map</text>
</g>
<g id="clust12" class="cluster">
<title>cluster_Global\League</title>
<path fill="none" stroke="#c0c0c0" d="M241.9839,-1038C241.9839,-1038 420.6701,-1038 420.6701,-1038 426.6701,-1038 432.6701,-1044 432.6701,-1050 432.6701,-1050 432.6701,-1170 432.6701,-1170 432.6701,-1176 426.6701,-1182 420.6701,-1182 420.6701,-1182 241.9839,-1182 241.9839,-1182 235.9839,-1182 229.9839,-1176 229.9839,-1170 229.9839,-1170 229.9839,-1050 229.9839,-1050 229.9839,-1044 235.9839,-1038 241.9839,-1038"/>
<text text-anchor="middle" x="331.327" y="-1169.2" font-family="Times,serif" font-size="11.00" fill="#c0c0c0">League</text>
</g>
<g id="clust13" class="cluster">
<title>cluster_Global\League\Plates</title>
<path fill="none" stroke="#c0c0c0" d="M249.9839,-1046C249.9839,-1046 412.6701,-1046 412.6701,-1046 418.6701,-1046 424.6701,-1052 424.6701,-1058 424.6701,-1058 424.6701,-1142 424.6701,-1142 424.6701,-1148 418.6701,-1154 412.6701,-1154 412.6701,-1154 249.9839,-1154 249.9839,-1154 243.9839,-1154 237.9839,-1148 237.9839,-1142 237.9839,-1142 237.9839,-1058 237.9839,-1058 237.9839,-1052 243.9839,-1046 249.9839,-1046"/>
<text text-anchor="middle" x="331.327" y="-1141.2" font-family="Times,serif" font-size="11.00" fill="#c0c0c0">Plates</text>
</g>
<g id="clust14" class="cluster">
<title>cluster_Global\League\Plates\Extension</title>
<path fill="none" stroke="#c0c0c0" d="M257.9839,-1054C257.9839,-1054 404.6701,-1054 404.6701,-1054 410.6701,-1054 416.6701,-1060 416.6701,-1066 416.6701,-1066 416.6701,-1114 416.6701,-1114 416.6701,-1120 410.6701,-1126 404.6701,-1126 404.6701,-1126 257.9839,-1126 257.9839,-1126 251.9839,-1126 245.9839,-1120 245.9839,-1114 245.9839,-1114 245.9839,-1066 245.9839,-1066 245.9839,-1060 251.9839,-1054 257.9839,-1054"/>
<text text-anchor="middle" x="331.327" y="-1113.2" font-family="Times,serif" font-size="11.00" fill="#c0c0c0">Extension</text>
</g>
<!-- \\App\\Models\\Base\\Category -->
<g id="node1" class="node">
<title>\\App\\Models\\Base\\Category</title>
<polygon fill="none" stroke="#000000" points="373.327,-238 289.327,-238 289.327,-202 373.327,-202 373.327,-238"/>
<text text-anchor="start" x="297.327" y="-223.2" font-family="Courier,monospace" font-size="11.00" fill="#000000">«abstract»</text>
<text text-anchor="start" x="303.827" y="-211.2" font-family="Courier,monospace" font-size="11.00" fill="#000000">Category</text>
</g>
<!-- ActiveRecordInterface -->
<g id="node20" class="node">
<title>ActiveRecordInterface</title>
<ellipse fill="none" stroke="#000000" cx="90.9919" cy="-179" rx="90.9839" ry="18"/>
<text text-anchor="middle" x="90.9919" y="-175.3" font-family="Times,serif" font-size="14.00" fill="#000000">ActiveRecordInterface</text>
</g>
<!-- \\App\\Models\\Base\\Category&#45;&gt;ActiveRecordInterface -->
<g id="edge4" class="edge">
<title>\\App\\Models\\Base\\Category&#45;&gt;ActiveRecordInterface</title>
<path fill="none" stroke="#000000" stroke-dasharray="1,5" d="M289.1888,-212.8114C256.3008,-207.2009 209.6748,-199.2467 169.9083,-192.4628"/>
<polygon fill="none" stroke="#000000" points="170.4047,-188.9969 159.9585,-190.7654 169.2275,-195.8973 170.4047,-188.9969"/>
</g>
<!-- \\App\\Models\\Base\\Task -->
<g id="node2" class="node">
<title>\\App\\Models\\Base\\Task</title>
<polygon fill="none" stroke="#000000" points="373.327,-184 289.327,-184 289.327,-148 373.327,-148 373.327,-184"/>
<text text-anchor="start" x="297.327" y="-169.2" font-family="Courier,monospace" font-size="11.00" fill="#000000">«abstract»</text>
<text text-anchor="start" x="317.327" y="-157.2" font-family="Courier,monospace" font-size="11.00" fill="#000000">Task</text>
</g>
<!-- \\App\\Models\\Base\\Task&#45;&gt;ActiveRecordInterface -->
<g id="edge5" class="edge">
<title>\\App\\Models\\Base\\Task&#45;&gt;ActiveRecordInterface</title>
<path fill="none" stroke="#000000" stroke-dasharray="1,5" d="M289.1888,-168.2793C261.4974,-169.7772 224.0666,-171.8018 189.1915,-173.6883"/>
<polygon fill="none" stroke="#000000" points="188.7465,-170.2071 178.9502,-174.2422 189.1246,-177.1969 188.7465,-170.2071"/>
</g>
<!-- \\App\\Models\\Base\\TaskQuery -->
<g id="node3" class="node">
<title>\\App\\Models\\Base\\TaskQuery</title>
<polygon fill="none" stroke="#000000" points="373.327,-130 289.327,-130 289.327,-94 373.327,-94 373.327,-130"/>
<text text-anchor="start" x="297.327" y="-115.2" font-family="Courier,monospace" font-size="11.00" fill="#000000">«abstract»</text>
<text text-anchor="start" x="300.827" y="-103.2" font-family="Courier,monospace" font-size="11.00" fill="#000000">TaskQuery</text>
</g>
<!-- ModelCriteria -->
<g id="node21" class="node">
<title>ModelCriteria</title>
<ellipse fill="none" stroke="#000000" cx="90.9919" cy="-98" rx="61.1893" ry="18"/>
<text text-anchor="middle" x="90.9919" y="-94.3" font-family="Times,serif" font-size="14.00" fill="#000000">ModelCriteria</text>
</g>
<!-- \\App\\Models\\Base\\TaskQuery&#45;&gt;ModelCriteria -->
<g id="edge6" class="edge">
<title>\\App\\Models\\Base\\TaskQuery&#45;&gt;ModelCriteria</title>
<path fill="none" stroke="#000000" d="M289.1888,-109.5454C253.8681,-107.4879 202.702,-104.5073 161.2048,-102.09"/>
<polygon fill="none" stroke="#000000" points="161.3383,-98.592 151.1517,-101.5044 160.9312,-105.5801 161.3383,-98.592"/>
</g>
<!-- \\App\\Models\\Base\\CategoryQuery -->
<g id="node4" class="node">
<title>\\App\\Models\\Base\\CategoryQuery</title>
<polygon fill="none" stroke="#000000" points="383.327,-76 279.327,-76 279.327,-40 383.327,-40 383.327,-76"/>
<text text-anchor="start" x="297.327" y="-61.2" font-family="Courier,monospace" font-size="11.00" fill="#000000">«abstract»</text>
<text text-anchor="start" x="287.327" y="-49.2" font-family="Courier,monospace" font-size="11.00" fill="#000000">CategoryQuery</text>
</g>
<!-- \\App\\Models\\Base\\CategoryQuery&#45;&gt;ModelCriteria -->
<g id="edge7" class="edge">
<title>\\App\\Models\\Base\\CategoryQuery&#45;&gt;ModelCriteria</title>
<path fill="none" stroke="#000000" d="M279.1779,-66.6794C242.5527,-72.7751 193.3581,-80.9628 154.4529,-87.4379"/>
<polygon fill="none" stroke="#000000" points="153.5755,-84.0357 144.2858,-89.1301 154.7247,-90.9407 153.5755,-84.0357"/>
</g>
<!-- \\App\\Models\\Map\\TaskTableMap -->
<g id="node5" class="node">
<title>\\App\\Models\\Map\\TaskTableMap</title>
<polygon fill="none" stroke="#000000" points="592.1701,-338 494.1701,-338 494.1701,-302 592.1701,-302 592.1701,-338"/>
<text text-anchor="middle" x="543.1701" y="-317.2" font-family="Courier,monospace" font-size="11.00" fill="#000000">TaskTableMap</text>
</g>
<!-- TableMap -->
<g id="node18" class="node">
<title>TableMap</title>
<ellipse fill="none" stroke="#000000" cx="331.327" cy="-686" rx="47.3916" ry="18"/>
<text text-anchor="middle" x="331.327" y="-682.3" font-family="Times,serif" font-size="14.00" fill="#c0c0c0">TableMap</text>
</g>
<!-- \\App\\Models\\Map\\TaskTableMap&#45;&gt;TableMap -->
<g id="edge9" class="edge">
<title>\\App\\Models\\Map\\TaskTableMap&#45;&gt;TableMap</title>
<path fill="none" stroke="#000000" d="M523.8979,-338.2996C508.7343,-353.3661 487.723,-375.7876 472.6701,-398 412.3478,-487.013 362.6236,-605.5607 341.8189,-658.474"/>
<polygon fill="none" stroke="#000000" points="338.5306,-657.2729 338.1616,-667.8613 345.0531,-659.8141 338.5306,-657.2729"/>
</g>
<!-- \\App\\Models\\Map\\CategoryTableMap -->
<g id="node6" class="node">
<title>\\App\\Models\\Map\\CategoryTableMap</title>
<polygon fill="none" stroke="#000000" points="605.6701,-284 480.6701,-284 480.6701,-248 605.6701,-248 605.6701,-284"/>
<text text-anchor="middle" x="543.1701" y="-263.2" font-family="Courier,monospace" font-size="11.00" fill="#000000">CategoryTableMap</text>
</g>
<!-- \\App\\Models\\Map\\CategoryTableMap&#45;&gt;TableMap -->
<g id="edge10" class="edge">
<title>\\App\\Models\\Map\\CategoryTableMap&#45;&gt;TableMap</title>
<path fill="none" stroke="#000000" d="M483.7763,-284.081C479.7396,-286.6732 475.9721,-289.6296 472.6701,-293 368.873,-398.9471 340.7092,-586.5029 333.5816,-657.6035"/>
<polygon fill="none" stroke="#000000" points="330.0571,-657.7018 332.6099,-667.9845 337.0267,-658.3542 330.0571,-657.7018"/>
</g>
<!-- \\App\\Models\\Category -->
<g id="node7" class="node">
<title>\\App\\Models\\Category</title>
<polygon fill="none" stroke="#000000" points="578.6701,-230 507.6701,-230 507.6701,-194 578.6701,-194 578.6701,-230"/>
<text text-anchor="middle" x="543.1701" y="-209.2" font-family="Courier,monospace" font-size="11.00" fill="#000000">Category</text>
</g>
<!-- \\App\\Models\\Category&#45;&gt;\\App\\Models\\Base\\Category -->
<g id="edge1" class="edge">
<title>\\App\\Models\\Category&#45;&gt;\\App\\Models\\Base\\Category</title>
<path fill="none" stroke="#000000" d="M507.2338,-213.3571C473.4606,-214.6325 422.5051,-216.5568 384.1156,-218.0065"/>
<polygon fill="none" stroke="#000000" points="383.5066,-214.5269 373.6458,-218.4019 383.7708,-221.5219 383.5066,-214.5269"/>
</g>
<!-- \\App\\Models\\Task -->
<g id="node8" class="node">
<title>\\App\\Models\\Task</title>
<polygon fill="none" stroke="#000000" points="570.1701,-176 516.1701,-176 516.1701,-140 570.1701,-140 570.1701,-176"/>
<text text-anchor="middle" x="543.1701" y="-155.2" font-family="Courier,monospace" font-size="11.00" fill="#000000">Task</text>
</g>
<!-- \\App\\Models\\Task&#45;&gt;\\App\\Models\\Base\\Task -->
<g id="edge2" class="edge">
<title>\\App\\Models\\Task&#45;&gt;\\App\\Models\\Base\\Task</title>
<path fill="none" stroke="#000000" d="M515.909,-159.0295C482.5635,-160.2887 425.3903,-162.4478 383.4895,-164.0301"/>
<polygon fill="none" stroke="#000000" points="383.3192,-160.534 373.4584,-164.409 383.5834,-167.529 383.3192,-160.534"/>
</g>
<!-- \\App\\Models\\TaskQuery -->
<g id="node9" class="node">
<title>\\App\\Models\\TaskQuery</title>
<polygon fill="none" stroke="#000000" points="581.6701,-122 504.6701,-122 504.6701,-86 581.6701,-86 581.6701,-122"/>
<text text-anchor="middle" x="543.1701" y="-101.2" font-family="Courier,monospace" font-size="11.00" fill="#000000">TaskQuery</text>
</g>
<!-- \\App\\Models\\TaskQuery&#45;&gt;\\App\\Models\\Base\\TaskQuery -->
<g id="edge3" class="edge">
<title>\\App\\Models\\TaskQuery&#45;&gt;\\App\\Models\\Base\\TaskQuery</title>
<path fill="none" stroke="#000000" d="M504.3148,-105.4673C470.4682,-106.7455 421.1007,-108.6098 383.7589,-110.02"/>
<polygon fill="none" stroke="#000000" points="383.4292,-106.5298 373.5684,-110.4048 383.6934,-113.5248 383.4292,-106.5298"/>
</g>
<!-- \\App\\Models\\CategoryQuery -->
<g id="node10" class="node">
<title>\\App\\Models\\CategoryQuery</title>
<polygon fill="none" stroke="#000000" points="595.1701,-68 491.1701,-68 491.1701,-32 595.1701,-32 595.1701,-68"/>
<text text-anchor="middle" x="543.1701" y="-47.2" font-family="Courier,monospace" font-size="11.00" fill="#000000">CategoryQuery</text>
</g>
<!-- \\App\\Models\\CategoryQuery&#45;&gt;\\App\\Models\\Base\\CategoryQuery -->
<g id="edge8" class="edge">
<title>\\App\\Models\\CategoryQuery&#45;&gt;\\App\\Models\\Base\\CategoryQuery</title>
<path fill="none" stroke="#000000" d="M491.0761,-51.9673C461.6883,-53.0771 424.7712,-54.4712 393.8311,-55.6396"/>
<polygon fill="none" stroke="#000000" points="393.4478,-52.1515 383.587,-56.0265 393.712,-59.1465 393.4478,-52.1515"/>
</g>
<!-- \\App\\Controllers\\Tasks -->
<g id="node11" class="node">
<title>\\App\\Controllers\\Tasks</title>
<polygon fill="none" stroke="#000000" points="570.1701,-500 516.1701,-500 516.1701,-464 570.1701,-464 570.1701,-500"/>
<text text-anchor="middle" x="543.1701" y="-479.2" font-family="Courier,monospace" font-size="11.00" fill="#000000">Tasks</text>
</g>
<!-- \\Core\\Controller -->
<g id="node16" class="node">
<title>\\Core\\Controller</title>
<polygon fill="none" stroke="#000000" points="373.327,-894 289.327,-894 289.327,-858 373.327,-858 373.327,-894"/>
<text text-anchor="start" x="297.327" y="-879.2" font-family="Courier,monospace" font-size="11.00" fill="#000000">«abstract»</text>
<text text-anchor="start" x="297.327" y="-867.2" font-family="Courier,monospace" font-size="11.00" fill="#000000">Controller</text>
</g>
<!-- \\App\\Controllers\\Tasks&#45;&gt;\\Core\\Controller -->
<g id="edge11" class="edge">
<title>\\App\\Controllers\\Tasks&#45;&gt;\\Core\\Controller</title>
<path fill="none" stroke="#000000" d="M516.0314,-494.2527C500.718,-502.6337 482.6946,-515.2659 472.6701,-532 399.6945,-653.8207 526.09,-742.0493 432.6701,-849 420.34,-863.116 401.5401,-870.2455 383.4671,-873.7245"/>
<polygon fill="none" stroke="#000000" points="382.8728,-870.275 373.5471,-875.303 383.9728,-877.188 382.8728,-870.275"/>
</g>
<!-- \\App\\Controllers\\Categories -->
<g id="node12" class="node">
<title>\\App\\Controllers\\Categories</title>
<polygon fill="none" stroke="#000000" points="585.1701,-446 501.1701,-446 501.1701,-410 585.1701,-410 585.1701,-446"/>
<text text-anchor="middle" x="543.1701" y="-425.2" font-family="Courier,monospace" font-size="11.00" fill="#000000">Categories</text>
</g>
<!-- \\App\\Controllers\\Categories&#45;&gt;\\Core\\Controller -->
<g id="edge12" class="edge">
<title>\\App\\Controllers\\Categories&#45;&gt;\\Core\\Controller</title>
<path fill="none" stroke="#000000" d="M500.9896,-435.7874C490.1995,-439.787 479.6787,-445.84 472.6701,-455 365.7149,-594.7875 546.8385,-715.0391 432.6701,-849 420.4629,-863.3235 401.5928,-870.4822 383.4299,-873.9267"/>
<polygon fill="none" stroke="#000000" points="382.8011,-870.4824 373.4591,-875.4801 383.8787,-877.3989 382.8011,-870.4824"/>
</g>
<!-- \\App\\Extensions\\Tasks -->
<g id="node13" class="node">
<title>\\App\\Extensions\\Tasks</title>
<polygon fill="none" stroke="#000000" points="570.1701,-580 516.1701,-580 516.1701,-544 570.1701,-544 570.1701,-580"/>
<text text-anchor="middle" x="543.1701" y="-559.2" font-family="Courier,monospace" font-size="11.00" fill="#000000">Tasks</text>
</g>
<!-- ExtensionInterface -->
<g id="node19" class="node">
<title>ExtensionInterface</title>
<ellipse fill="none" stroke="#000000" cx="331.327" cy="-1080" rx="77.1866" ry="18"/>
<text text-anchor="middle" x="331.327" y="-1076.3" font-family="Times,serif" font-size="14.00" fill="#c0c0c0">ExtensionInterface</text>
</g>
<!-- \\App\\Extensions\\Tasks&#45;&gt;ExtensionInterface -->
<g id="edge13" class="edge">
<title>\\App\\Extensions\\Tasks&#45;&gt;ExtensionInterface</title>
<path fill="none" stroke="#000000" stroke-dasharray="1,5" d="M541.0719,-580.1523C531.7788,-657.8269 492.142,-961.5498 432.6701,-1034 422.3148,-1046.6151 407.7597,-1055.9135 392.9038,-1062.7104"/>
<polygon fill="none" stroke="#000000" points="391.4952,-1059.5059 383.6499,-1066.6264 394.2232,-1065.9524 391.4952,-1059.5059"/>
</g>
<!-- \\Core\\View -->
<g id="node14" class="node">
<title>\\Core\\View</title>
<polygon fill="none" stroke="#000000" points="358.327,-1002 304.327,-1002 304.327,-966 358.327,-966 358.327,-1002"/>
<text text-anchor="middle" x="331.327" y="-981.2" font-family="Courier,monospace" font-size="11.00" fill="#000000">View</text>
</g>
<!-- \\Core\\Request -->
<g id="node15" class="node">
<title>\\Core\\Request</title>
<polygon fill="none" stroke="#000000" points="363.327,-948 299.327,-948 299.327,-912 363.327,-912 363.327,-948"/>
<text text-anchor="middle" x="331.327" y="-927.2" font-family="Courier,monospace" font-size="11.00" fill="#000000">Request</text>
</g>
<!-- \\Core\\App -->
<g id="node17" class="node">
<title>\\Core\\App</title>
<polygon fill="none" stroke="#000000" points="358.327,-840 304.327,-840 304.327,-804 358.327,-804 358.327,-840"/>
<text text-anchor="middle" x="331.327" y="-819.2" font-family="Courier,monospace" font-size="11.00" fill="#000000">App</text>
</g>
</g>
</svg>
